<svg id="Layer_1" data-name="Layer 1" xmlns="http://www.w3.org/2000/svg" viewBox="0 0 142.8 140.47"><defs><style>.cls-1{fill:#940d16;}</style></defs><path class="cls-1" d="M64.57,48.47c1.09-.66,1.51-1.88,2.27-2.81a1.41,1.41,0,0,0,0-1.75c.28-.39.51-.72.76-1A1.68,1.68,0,0,1,68,42.5c.26-.17.48-.14.48.23a3.16,3.16,0,0,1-.06,1,.91.91,0,0,0,.36,1.07,1.9,1.9,0,0,1,.78,2,1.77,1.77,0,0,0,.06.76c.09.26.47.47.09.78.09.08.16.21.26.24a1.45,1.45,0,0,0,.51,0,10.13,10.13,0,0,1,1.81-.15c.83.09,1.65,0,2.47,0a5.43,5.43,0,0,1,1.47.42,4.74,4.74,0,0,0,2.89-.11,3.06,3.06,0,0,1,2.83.61,17.34,17.34,0,0,0,2.49,1.69,2.24,2.24,0,0,0,2.51-.06,12.07,12.07,0,0,1,1.46-.93,1.26,1.26,0,0,1,1.82.5,11.63,11.63,0,0,0,1.56,2.26,2,2,0,0,0,1.72.69,1.57,1.57,0,0,1,.8.31,1.46,1.46,0,0,1,.45.41c.27.38.5.8.78,1.17.4.52.85,1,1.26,1.54a7.44,7.44,0,0,1,.38.68,4.74,4.74,0,0,0,.59,1.06A29.6,29.6,0,0,0,99.87,61a4,4,0,0,1,.74,1.38,4.84,4.84,0,0,1,.61,3.16c0,.13.19.32.29.49s.17.29.28.5c.09,0,.24,0,.39,0,.36,0,.53.09.54.49a.65.65,0,0,0,.34.44c.71.29.91.53.92,1.3a12.37,12.37,0,0,1,0,1.49,1,1,0,0,0,.34,1,3.46,3.46,0,0,1,1.11,3.2,4,4,0,0,0,.1,1.67c.17.46.66.8,1,1.19s.39.51.61.72a1,1,0,0,0,.53.29,1.63,1.63,0,0,0,.85-.15c1-.6,1.85.08,2.73.4l1.2.42a8.34,8.34,0,0,1-.45,3.81c-.23.5-.4,1-.59,1.53s-.39.66-.85.57l-2.21-.45-.83-.15c.2,1.28.55,2.28,1.72,2.8a3.11,3.11,0,0,1,1,.78,1.31,1.31,0,0,0,1.09.46c.34,0,.68,0,1,0s.44.12.36.43c-.16.54-.28,1.09-.49,1.61a1.28,1.28,0,0,1-.51.55c-.74.52-1.49,1-2.25,1.49a6.38,6.38,0,0,1-.7.28c-.27.13-.66.25-.77.48a3.82,3.82,0,0,1-1.2,1.2c-.45.38-.73,1-1.18,1.33a2.23,2.23,0,0,0-.79,1.87c0,.43-.12.86-.09,1.28a1.38,1.38,0,0,0,.39.63,2.12,2.12,0,0,1,.68,1.6,1.12,1.12,0,0,1-.85,1,.83.83,0,0,1-1-.55,4.3,4.3,0,0,0-.5-.78,1.93,1.93,0,0,0-.34-.29c-.09.13-.25.25-.27.39a2.84,2.84,0,0,0,0,.77,10.92,10.92,0,0,0,.23,1.52,6.62,6.62,0,0,0,.61,1.16c-.24.54-.1,1.13.78,1.44l-.11.12-1.17-.32c0,.8,0,1.52,0,2.24a.65.65,0,0,0,.43.45,1.38,1.38,0,0,1,1,.77c.16.29.36.55.5.84a.9.9,0,0,1,.14.58c-.38,1.16.43,1.74,1.1,2.42a4.67,4.67,0,0,1,.92,1.21,2.63,2.63,0,0,0,1.51,1.22c.69.34,1.43.57,2.09.94.29.17.42.61.67.88.51.54,1,1.05,1.58,1.57.19.2.37.4.54.61a4.71,4.71,0,0,0,.87,1,10,10,0,0,1,2.36,2.41c.43.52.59.58,1.16.24.17-.11.35-.2.57-.33.32,1.33,1.33,1.53,2.43,1.59h.26c.34,0,.77,0,1,.13s.18.61.26.93a1.76,1.76,0,0,0,.93,1.28,1.19,1.19,0,0,1,.81,1.5.86.86,0,0,0,.13.59,1.72,1.72,0,0,1,.08,1.53,1.83,1.83,0,0,0-.06.25,1,1,0,0,1-1.64.88,4.91,4.91,0,0,0-1.84-.51,5.55,5.55,0,0,1-1.61-.7c-.15-.08-.24-.28-.39-.33-.56-.22-1-.51-.87-1.22,0-.13-.27-.34-.45-.45a1.56,1.56,0,0,1-.9-1.6c.13-1-.58-1.63-1-2.41a1.33,1.33,0,0,0-1.7-.79c-.11-.29-.2-.54-.31-.82.44,0,.53.79,1.24.48l-1.45-1.29c-.06-.05-.16-.12-.23-.1-.57.11-.8-.33-1.11-.66-.84-.87-1.72-1.69-2.53-2.57s-1.35-1.69-2.11-2.45-1.57-1.27-2.34-1.92-1.65-1.48-2.51-2.18a3.55,3.55,0,0,0-3.35-.8.65.65,0,0,0-.55.73,7.6,7.6,0,0,0,1.56,4.38,6,6,0,0,0,1.86,2c.34.17.54.61.8.93.76.92,1.55,1.83,2.27,2.78a14,14,0,0,1,.86,1.51c.17.31.36.6.55.91-.22.14-.42.36-.64.39-.51.09-1,.19-1.4-.44-.79-1.12-1.8-2.09-2.66-3.17-.49-.62-.8-1.36-1.27-2a8.83,8.83,0,0,0-1.35-1.45c-.66-.57-1.39-1-2.08-1.59a3.58,3.58,0,0,0-2.38-.61,1.12,1.12,0,0,1-.73-.26,1.84,1.84,0,0,0-1.93-.26c-.72.4-1.44.79-2.15,1.2-.14.08-.33.24-.32.37,0,.54-.12,1.2.14,1.59a12.82,12.82,0,0,1,1.37,3c.33,1,.58,2,.82,3a18.23,18.23,0,0,0,1.68,4.5c.62,1.14,1.16,2.32,1.79,3.45a4.15,4.15,0,0,0,.85.88.87.87,0,0,1,.33,1,1.73,1.73,0,0,0,.42,1.66c.29.36.52.75.22,1.21a.93.93,0,0,1-1.64-.16c-.45-.87-.83-1.79-1.25-2.68-.61-1.34-1.21-2.68-1.84-4a8.07,8.07,0,0,0-.64-1,1.89,1.89,0,0,0,0-2.3,11.82,11.82,0,0,1-.7-2.08,2.16,2.16,0,0,0-.29-.59c-.44-.67-.91-1.32-1.32-2a1.67,1.67,0,0,1-.16-.89,1.12,1.12,0,0,0-.69-1.2.69.69,0,0,1-.4-.68,1.76,1.76,0,0,0-.45-.79,7.41,7.41,0,0,0-.64-.61c-.07-.06-.11-.14-.17-.19-1-.64-2-1.3-3.06-1.9a7.78,7.78,0,0,0-1.3-.5,3.84,3.84,0,0,1-.51-.19c-.26-.15-.39-.42-.71,0-.16.24-.83.19-1.27.2s-1.11-.08-1.67,0c-.18,0-.33.31-.52.45s-.51.35-.76.54-.73.58-1.07.9c-.19.17-.33.38-.51.57A14.35,14.35,0,0,1,74.49,119a3,3,0,0,1-1,.32c0-.08,0-.16.08-.24L72.76,118a1.87,1.87,0,0,1-.24-.38A5.36,5.36,0,0,0,71.05,116a1.08,1.08,0,0,0-1.24-.19c-.7.37-1.24-.06-1.84-.2a1,1,0,0,0-.6,0,1.12,1.12,0,0,1-1.08,0c-.09-.05-.21-.13-.29-.1a11.94,11.94,0,0,0-2.19.8,2.12,2.12,0,0,1-1.44.32c-.2,0-.43-.42-.46-.66a8.62,8.62,0,0,0-1.07-3.34,3.72,3.72,0,0,0-1.52-1.45,6.41,6.41,0,0,1-3-2.79c-.22-.41-.49-.79-.75-1.19,0,0-.12,0-.18-.07a13.25,13.25,0,0,0-1.34-.46,5.35,5.35,0,0,0-1.06,0c-.08,0-.17.07-.25,0l-2.26-.35a2.1,2.1,0,0,0-.65-.06c-.48.1-.95.26-1.42.38a1.15,1.15,0,0,1-1.45-.91.22.22,0,0,0,0-.09c-.53-.37-.21-1-.37-1.41a3.2,3.2,0,0,0-2.15-2.27,1.08,1.08,0,0,1-.33-.13c-.58-.47-1.14-1-1.72-1.41a10.85,10.85,0,0,0-1.14-.77c-.73-.43-1.49-.83-2.21-1.27-.12-.08-.13-.32-.19-.48l-.79-.08a2.91,2.91,0,0,0-2.51.88,2.17,2.17,0,0,1-1.65.55,3.58,3.58,0,0,0-1.24.36c-.06,0-.08.35,0,.48.48.9,1.32,1.62,1.19,2.82a4.75,4.75,0,0,0,.3,1.44c0,.15.16.31.13.43-.25.83.26,1.49.44,2.22a.51.51,0,0,0,.15.21,2.33,2.33,0,0,1,.51,2.94,1.24,1.24,0,0,0-.11.43c-.08.45-.15.91-.22,1.36a.45.45,0,0,0,0,.2A5.57,5.57,0,0,1,34.7,115a5.85,5.85,0,0,0,0,1c0,.76-.11,1.53-.17,2.3,0,.21,0,.43-.07.64s0,.51-.08.63a1,1,0,0,0-.22,1.08c.19.65-.3,1.12-.47,1.67a2.81,2.81,0,0,1-.33.8,5,5,0,0,1-.75.85,5.44,5.44,0,0,1-.73.48c.12-.28.29-.5.26-.68s-.32-.31-.42-.5a2.53,2.53,0,0,1-.34-.9c-.06-.79-.07-1.59-.06-2.38a1.33,1.33,0,0,1,.21-.49,7.09,7.09,0,0,1-.58-1.17,1.25,1.25,0,0,1,.36-1.37c.23-.2.4-.46.61-.68a1.3,1.3,0,0,0,.06-1.35,6.88,6.88,0,0,1-.79-1.32,17.88,17.88,0,0,1-.39-2,1.28,1.28,0,0,0-.28-.66,1.75,1.75,0,0,1-.47-1.45,5.11,5.11,0,0,0-.31-1.14,2.44,2.44,0,0,1-.13-.8,2.74,2.74,0,0,0-.21-1.48,8.66,8.66,0,0,1-1-3.72,4,4,0,0,0-.48-1.57.77.77,0,0,1,.39-1.19,2.09,2.09,0,0,0,.61-.36,1.43,1.43,0,0,1,1.59-.36c.55.21,1.12.35,1.86.57l1.16-.6a1.7,1.7,0,0,1,1.82-1.76h.42c.95,0,1.17-.32,1.47-1.22a10.59,10.59,0,0,1,.89-2.57c.22-.34.11-.9.11-1.36,0-.15-.14-.29-.15-.44a3.42,3.42,0,0,0-.91-1.91c-.18-.25,0-.75,0-1.14a2.43,2.43,0,0,0,0-.81A9,9,0,0,0,36.43,86c-.12-.21-.45-.3-.71-.41s-.46-.11-.68-.2a1,1,0,0,0-1-.07.49.49,0,0,1-.46-.13,1,1,0,0,0-1.07-.33,2.41,2.41,0,0,1-2.27-.13,1.16,1.16,0,0,0-1.48-.1.91.91,0,0,1-1.21,0,1.22,1.22,0,0,0-1.06.07,2.53,2.53,0,0,1-1.75.17c-.28,0-.57-.08-.86-.11-.66-.07-1.32-.16-2-.2s-1.55,0-2.32,0a2.2,2.2,0,0,1-.9-.28c-.54-.3-1.05-.68-1.68-.21a.42.42,0,0,1-.25,0c-1.24,0-2.47.08-3.7.05a20.94,20.94,0,0,1-2.5-.24c-.51-.07-.84-.19-.52-.94.05-.13,0-.32-.07-.48a2.77,2.77,0,0,0,1.77.3,1.47,1.47,0,0,1,.5.07,2.9,2.9,0,0,0,1.7,0c.41-.14.95.11,1.44.15s.77,0,1.16,0,.94,0,1.4,0c.78,0,1.56-.11,2.33-.18s1.62-.15,2.44-.18,1.61,0,2.41,0c1.22.07,2.44.19,3.78.3l-.19,1.36a3.36,3.36,0,0,1,.64,0,3.67,3.67,0,0,1,1.1.31,2.38,2.38,0,0,0,1.63.25c1-.12,2.06-.19,3.09-.31.21,0,.5-.07.6-.21a7.45,7.45,0,0,0,1.14-1.85,3.05,3.05,0,0,0-.24-1.47c-.13-.58-.32-1.15-.44-1.73,0-.15.14-.34.21-.5a2.16,2.16,0,0,1-.28-.57,1.44,1.44,0,0,0-1.6-1.38l-.2,0s0-.1,0-.15a5.31,5.31,0,0,1,.84-.31c.72-.14,1.45-.22,2.17-.37a.79.79,0,0,0,.52-.38c.43-1,1.22-1.9,1.19-3.12,0-.25.23-.52.37-.77a.85.85,0,0,0,0-1.09.51.51,0,0,1,0-.42c.15-.43.31-.86.5-1.28a1.37,1.37,0,0,1,.34-.42,2.61,2.61,0,0,1,.66-.55c.69-.31.87-1,1.23-1.55a2.51,2.51,0,0,0,.34-2.62c-.38-.83-.28-1.09.59-1.28a3.88,3.88,0,0,0,2.38-2,1.5,1.5,0,0,1,.65-.44c.36-.15.62-.33.47-.76s-.47-.48-.92-.3a1.64,1.64,0,0,1-1.6-.12,22.63,22.63,0,0,0-2.54-1.43,4.12,4.12,0,0,1-1.78-1.55c-.07-.11-.23-.17-.36-.25-.47-.29-.94-.57-1.4-.88S36.77,54,36.2,53.57a.86.86,0,0,1-.31-.48.76.76,0,0,0-1.23-.51,1.2,1.2,0,0,1-.66.1,2.11,2.11,0,0,1-.65-.11,6,6,0,0,1-.9-.39c-.21-.1-.41-.23-.64-.36-.13-.71-.13-.71.37-1.06l-1-.93c.65-.71.89-.7,1.68-.17a3.1,3.1,0,0,0,1.24.42,4.76,4.76,0,0,1,2.52.88.68.68,0,0,0,.31.17c.83.07,1.07.72,1.32,1.34.07.17,0,.42-.06.64s-.06.5.05.62a7.48,7.48,0,0,0,1.22,1c.69.47,1.42.88,2.14,1.3.23.14.49.23.73.36.49.26.92.57.79,1.11a7,7,0,0,0,1.28.6,1.47,1.47,0,0,0,1.31-.27,13.45,13.45,0,0,1,1.89-1.38,1.56,1.56,0,0,1,1.2,0,.94.94,0,0,0,1.08-.12,3,3,0,0,0,.58-.65c.34-.52.36-1.06-.38-1.29-.51-.16-.6-.54-.24-.94s.23-.51,0-.79a4.21,4.21,0,0,1-1.15-2.81,2.74,2.74,0,0,0-.44-1.12A25,25,0,0,0,47,46.54c-.46-.65-1-1.23-1.55-1.83a.31.31,0,0,0-.2-.05,1.08,1.08,0,0,1-1.09-1.1A2.31,2.31,0,0,0,42,41.64,2.58,2.58,0,0,1,40.73,41a10.3,10.3,0,0,1-1.33-1.39A7,7,0,0,1,38.15,37a9.29,9.29,0,0,0-1.67-2.68c-.3-.44-.59-.89-.88-1.34l.17-.11.35.52c.18.26.35.53.55.77s.48.59.93.23c.06,0,.43.16.53.33.25.38.4.82.62,1.23a2.8,2.8,0,0,0,.39.46,12.2,12.2,0,0,1,1.1,1.18,6,6,0,0,0,1.91,1.83,10.56,10.56,0,0,1,1.13.52,13.28,13.28,0,0,1,1.31,1.19,5.58,5.58,0,0,0,.56.53,2,2,0,0,1,.82,1.8,1.94,1.94,0,0,0-.63.17,1.74,1.74,0,0,0-.37.6s.26.16.4.25l.28.25c.11.13.19.28.31.4.3.32.62.63.92,1,.08.08.19.19.19.29,0,.84.71,1.31,1.06,2a12.34,12.34,0,0,0,2.46,2.59.62.62,0,0,0,.35.2,6,6,0,0,0,1.81.21,9.7,9.7,0,0,0,2.59-.73,25,25,0,0,0,2.11-1.35,1.92,1.92,0,0,1,1-.16,2,2,0,0,0,1.37-.29,2.23,2.23,0,0,1,.77-.18l.34,1.17a12.05,12.05,0,0,0,1.9,0,2.07,2.07,0,0,0,1.5-.94c.08-.13.18-.24.27-.36-.36.91,0,1.5.9,1.64.12,0,.3.14.32.25a.78.78,0,0,0,.84.61c1,.08,1.71-.69,2.52-1.16.07,0,.1-.18.1-.28,0-.34,0-.68,0-1a1.09,1.09,0,0,1-1.16-.7.9.9,0,0,0-.91-.55.59.59,0,0,1-.42-.19c-.49-.52-.49-.53-.85.14A2.43,2.43,0,0,1,64.57,48.47ZM88.7,112.81c0,.9,1.16,2,1.86,1.77a17,17,0,0,0,2.13-1c.31-.15.6-.33.89-.5a7.06,7.06,0,0,0,1-.62c.45-.39.37-.64-.08-1-.93-.8-2.1-.55-3.14-.65a2.86,2.86,0,0,0-2.48,1.59A2.35,2.35,0,0,0,88.7,112.81Z"/><path class="cls-1" d="M131.28,33.85c.46-.4.84-.79,1.28-1.1a1.29,1.29,0,0,1,.81-.28.61.61,0,0,0,.73-.3,4.33,4.33,0,0,0,.36-.62,2.43,2.43,0,0,1,1.59-1.49c.2-.08.58-.12.67,0,.24.29.44.72.11,1.06s-1,.74-1.42,1.21-1.28.91-1.34,1.92a5.82,5.82,0,0,1-.91,2.13c-.45.88-1,1.71-1.43,2.59-.55,1.09-1,2.23-1.52,3.34-.17.37-.16.66.21.88a.61.61,0,0,1,.23.92,4.21,4.21,0,0,0-.33.63,7.68,7.68,0,0,0-.19.83l.15.09-.42.05c-.27.56-.53,1.1-.8,1.63a1.3,1.3,0,0,1-1,.77c-.3,0-.44-.1-.36-.38s.26-.56.34-.85a5.43,5.43,0,0,0,.09-.81l-.2-.11a4.94,4.94,0,0,0-.82.68,17.17,17.17,0,0,1-4,3.67,1.14,1.14,0,0,1-1.25.1,1.28,1.28,0,0,1-.75-1.08,3,3,0,0,1,0-.52c0-.38,0-.68-.49-.76-.27,0-.42-.3-.15-.58l1-1a2,2,0,0,0,.52-.94,11.9,11.9,0,0,1,.94-2.06c.07-.13.27-.23.28-.35.07-.88.78-1.36,1.25-2a5.24,5.24,0,0,0,1.25-1.82c.07-.26.49-.41.71-.65a14.15,14.15,0,0,1,3.12-3c.36-.21.57-.67.86-1a3,3,0,0,1,.36-.35Z"/><path class="cls-1" d="M74.21,32.63a2.57,2.57,0,0,1-.35-.29c-.23-.31-.44-.59-.9-.54-.1,0-.27-.14-.34-.26a6.21,6.21,0,0,1-.94-4,2.25,2.25,0,0,0-1.08-1.79.94.94,0,0,0-.74.29c-.64.71-1.24,1.45-1.81,2.21a1.67,1.67,0,0,0-.37,1.63,3.61,3.61,0,0,1-.29,1.72.71.71,0,0,1-.54,0,6.18,6.18,0,0,1-1.63-2.75,2.58,2.58,0,0,0-.35-.84,6.3,6.3,0,0,1-.71-2.63c-.84,0-1.72,0-2.59,0a8.85,8.85,0,0,1-1,.1,13.67,13.67,0,0,1-2.21-.31c-.23,0-.41-.42-.57-.67s-.54-.53-.91-.32c-.69.4-1.07.29-1.86-.41a15,15,0,0,1-2.54-3.5,4.4,4.4,0,0,1-.33-1.17c0-.1,0-.23-.07-.29-.77-.67-.7-1.73-1.17-2.54a1.6,1.6,0,0,1-.16-.94c.06-.42,0-.65-.44-.78-.1,0-.17-.16-.25-.25l1.19.38a1.1,1.1,0,0,1,.45.21,10.41,10.41,0,0,1,1,1.07,15.53,15.53,0,0,1,1.9,2.63,7.82,7.82,0,0,1,1.21,3.14.39.39,0,0,0,.09.23c.12.14.24.33.39.35s.24-.21.4-.38l1.19.5a.35.35,0,0,1,.17.19c.27.78.53,1.58.81,2.36,0,.09.1.22.17.23.55,0,1.1.09,1.65.09,1,0,2,0,2.93-.07a5.19,5.19,0,0,0,.65-.17c.16,0,.37-.12.48-.05a3.76,3.76,0,0,0,2.79.13,4.63,4.63,0,0,1,2.12-.24c.07,0,.19-.08.26-.14a2,2,0,0,1,1.94-.37c.23.44.4.76.58,1.08a1.08,1.08,0,0,1,.11.18c.25.85.49,1.72.73,2.58a8.86,8.86,0,0,1,.34,1.11c.11.74.16,1.49.27,2.22a10.52,10.52,0,0,0,.3,1.1Z"/><path class="cls-1" d="M103.6,13.48c-.2.69-.45,1.51-.67,2.33a7.68,7.68,0,0,0-.28,1.33,2.23,2.23,0,0,1-.39,1.44.57.57,0,0,0-.09.39c0,.51,0,1,.12,1.52s.19.68.26,1a3.79,3.79,0,0,1,.09.89c0,.46-.11.91-.15,1.37-.11,1.5-.17,3-.34,4.49a14.88,14.88,0,0,1-.52,2,14.92,14.92,0,0,1-.62,2.1,14.34,14.34,0,0,1-1.13,1.81,11.3,11.3,0,0,1-.68,1,3.2,3.2,0,0,0-.49,2.31,9.66,9.66,0,0,1-1,4.73.49.49,0,0,1-.39.23.5.5,0,0,1-.37-.26,6.4,6.4,0,0,1-.4-1.11,1.11,1.11,0,0,1,0-.65c.31-.73.72-1.43,1-2.17a6,6,0,0,0,.2-1.41c.09-.66.15-1.32.25-2a1,1,0,0,1,.26-.6c.39-.31.33-.66.3-1.09a23.73,23.73,0,0,1,0-3c.06-.94.27-1.88.41-2.82,0-.05,0-.1,0-.15-.19-1.4.51-2.59,1-3.82.29-.78.74-1.5,1.1-2.25a5.49,5.49,0,0,0,.21-.69c0-.1,0-.22,0-.3a7.61,7.61,0,0,0,.59-2.65,15,15,0,0,0-.15-3.49,2.54,2.54,0,0,1,1-2.34c.31-.22.53-.14.61.21S103.49,12.85,103.6,13.48Z"/><path class="cls-1" d="M30.41,61.05c1-.49,1.65.39,2.45.64.2.07.26.57.43,1a5.41,5.41,0,0,1-2.44-.4,1.42,1.42,0,0,0-.52-.19c-.71-.07-1.44-.07-2.14-.19a4.63,4.63,0,0,1-1.39-.5c-.55-.3-1-.74-1.59-1A7.82,7.82,0,0,1,23,58.78a3.79,3.79,0,0,0-.65-.55c-.45-.32-.91-.63-1.39-.91-.23-.14-.51-.2-.74-.35-.83-.5-1.64-1-2.48-1.54a1.08,1.08,0,0,0-.52-.18,3.92,3.92,0,0,1-2.18-.82c-.31-.22-.62-.42-.91-.65-.57-.46-1.05-1.64-.16-2.07a1,1,0,0,1,.59-.07c.57.16,1.14.34,1.69.55a2.14,2.14,0,0,1,.6.39,16.38,16.38,0,0,0,3,2.23c1,.53,2,1,3,1.57.52.29,1.07.5,1.59.76.27.14.51.32.77.48a2.59,2.59,0,0,0,2,.56.59.59,0,0,1,.71.36c.29.51.52,1,1.28,1.09A1.43,1.43,0,0,1,30.41,61.05Z"/><path class="cls-1" d="M105.78,53l-.45-.06c.1-.06.14-.09.17-.09a1,1,0,0,0,1.12-.77,1.17,1.17,0,0,1,0-.2c.27-.42.54-.85.82-1.26a23.78,23.78,0,0,1,1.76-2.5c.86-1,1.86-1.85,2.8-2.76a2.1,2.1,0,0,1,.41-.38c.19-.13.43-.19.63-.31s.35-.24.34-.28c-.2-.44.11-.72.29-1,.29-.48.64-.93.89-1.42a.77.77,0,0,1,1-.49,2,2,0,0,0,.35.07c.56,0,.75.32.4.77a25.68,25.68,0,0,1-1.76,2,3.16,3.16,0,0,0-1,1.59,9.43,9.43,0,0,1-.61,1.4,1.85,1.85,0,0,0,0,.53l.53,0,1.31-.1c.23.52-.6.92.13,1.43L113.4,50l-.19.1c-1.35,1-2.71,1.92-4,2.93a7.06,7.06,0,0,1-2.59,1C106.24,54.1,105.9,53.61,105.78,53Z"/><path class="cls-1" d="M114.29,78c.29-.24.58-.52.91-.76.18-.12.45-.27.62-.22a1.28,1.28,0,0,0,1.19-.29,1.51,1.51,0,0,1,1.7,0,.93.93,0,0,0,.39.25c.63.07.77.41.76,1a6,6,0,0,0,.36,1.31,16.18,16.18,0,0,1,.43,2.16,1.81,1.81,0,0,1-1.72,1.77c-.82,0-1.65.08-2.47.07a2.57,2.57,0,0,1-2.31-1.87,3.1,3.1,0,0,1,.08-2A6,6,0,0,0,114.29,78Z"/><path class="cls-1" d="M21.76,130c.21-.89.43-1.79.63-2.69,0-.17.1-.46,0-.51a.78.78,0,0,0-.57-.07c-.59.13-1-.16-.78-.72a2,2,0,0,0-.91-2.48,1.51,1.51,0,0,1-.58-1.89,1,1,0,0,1,.31-.36c.07-.07.21-.12.22-.19.12-.6.5-.4.86-.31a1.41,1.41,0,0,0,.5,0,3,3,0,0,1,2.12.61.69.69,0,0,1,.27.36c.3,1.07.59,2.13.84,3.21a1.22,1.22,0,0,0,.61.89,1.13,1.13,0,0,1,0,2A2.46,2.46,0,0,0,24,130.46a1,1,0,0,1-.61,1.12c-1,.37-1.39-.25-1.53-1.28a1.53,1.53,0,0,1,0-.3Z"/><path class="cls-1" d="M83.57,6a29.32,29.32,0,0,0-.12,4.08,9.35,9.35,0,0,0,.59,3.3,8.63,8.63,0,0,1,.39,2.82,9.08,9.08,0,0,1,0,1.38c-.11,1.45-.23,2.89-.37,4.33a1.38,1.38,0,0,1-1.12,1,1.25,1.25,0,0,1-.92-.86,7.15,7.15,0,0,1-.08-1c-.07-1.52-.15-3-.21-4.56a13.15,13.15,0,0,1,0-1.88,5.35,5.35,0,0,1,.39-1.67,8.14,8.14,0,0,0,.4-2.43,2.81,2.81,0,0,0,.1-.69,11.51,11.51,0,0,0-.39-2.44,3.3,3.3,0,0,1,0-2.51c.07-.16.33-.38.43-.35.29.1.74,0,.83.45s.13.7.19,1Z"/><path class="cls-1" d="M111,97.3c.07-.81.24-1,1-1.13.12,0,.31-.07.35-.16.39-.87,1.19-.81,1.93-.83s.78.07,1,1c.06.38.07.74.56.82.1,0,.17.16.26.24.76.73,1.55,1.43,2.25,2.21a1.74,1.74,0,0,1,.24,1.08c0,.13-.33.27-.52.38-.88.45-1.53-.15-2.22-.51s-1.07-.67-1.61-1a3,3,0,0,0-1.86-.43c-.4,0-.8.12-.84-.55A3.73,3.73,0,0,0,111,97.3Z"/><path class="cls-1" d="M29.41,91.63c-.65-.08-1.19-.17-1.74-.21a2.86,2.86,0,0,0-.69.12c-.89.22-1.79.41-2.68.66a2.23,2.23,0,0,0-.66.47,1.16,1.16,0,0,1-1.8-.06c-.15-.17-.33-.5-.27-.6a1.58,1.58,0,0,1,.74-.62,7.67,7.67,0,0,1,1.18,0,8.88,8.88,0,0,0,1.14-.24,11.47,11.47,0,0,1,1.49-.35,2.94,2.94,0,0,0,2.13-1.2,1.56,1.56,0,0,1,1.68-.76,8.74,8.74,0,0,0,2.1-.07.81.81,0,0,1,.15,0,2.94,2.94,0,0,0,1.61,0c.68-.09.77.12.55.75-.47,1.34-1.64,1.62-2.79,1.91C30.82,91.5,30.06,91.54,29.41,91.63Z"/><path class="cls-1" d="M3.39,70.76a5.45,5.45,0,0,1,.7,0c1.41.21,2.82.44,4.23.66l1,.14,1.73.16a2.37,2.37,0,0,0,.46,0c.76,0,1.52-.12,2.29-.14a13.79,13.79,0,0,1,1.42.11,4.18,4.18,0,0,0,.71,0,6.4,6.4,0,0,1,2.45.44,5.87,5.87,0,0,0,1.26.16,1.4,1.4,0,0,1,1.16,1.19c0,.09,0,.24-.07.28a2.13,2.13,0,0,1-1.8.55l-.75-.19a14.29,14.29,0,0,0-2.28-.49,18.1,18.1,0,0,1-3.61-.76,8.9,8.9,0,0,0-2.3-.42,14.41,14.41,0,0,1-2.42-.35.84.84,0,0,1-.39-.11A7.07,7.07,0,0,0,3.65,71l-.27-.06Z"/><path class="cls-1" d="M122.27,91.29a2,2,0,0,0,1.23-1.46,2.19,2.19,0,0,1,3.4-1.17.9.9,0,0,1,.31.6,4.53,4.53,0,0,1-.76,3.08c-.1.13-.47.25-.57.18a3.17,3.17,0,0,0-1.93-.34C123.26,92.17,122.85,91.68,122.27,91.29Z"/><path class="cls-1" d="M74.2,32.64c.33.27.66.56,1,.82.18.14.39.33.59.33a10.64,10.64,0,0,0,2.72-.14,2.85,2.85,0,0,1,1.75-.24c.24.08.59-.14.89-.24s.59-.23,1-.38c-.08.72-.13,1.36-.24,2a.92.92,0,0,1-.38.46A17.8,17.8,0,0,0,80,36.34a1.71,1.71,0,0,1-1.42.55c-.44-.09-.84-.58-1.18-1s-.82-1.12-1.27-1.65a1.76,1.76,0,0,0-.6-.35,2.86,2.86,0,0,1-1.36-1.3Z"/><path class="cls-1" d="M125.38,82.32a1.71,1.71,0,0,0-.31,2.18,3.5,3.5,0,0,1-3.32-1.08,1.17,1.17,0,0,1,.32-1.88,6.25,6.25,0,0,1,.81-.33,1.29,1.29,0,0,1,1.3.21C124.56,81.74,125,82,125.38,82.32Z"/><path class="cls-1" d="M17.79,93.64a19.94,19.94,0,0,0-2.46.33c-.62.16-.85-.18-1.11-.56a.92.92,0,0,1,0-1.14,1.2,1.2,0,0,1,1.42-.41,2.84,2.84,0,0,0,1.45,0,2.49,2.49,0,0,1,1.73.21c.15.06.27.46.24.68A1.18,1.18,0,0,1,17.79,93.64Z"/><path class="cls-1" d="M61.35,43.34c.83,0,1.11.41,1,1.23a3.34,3.34,0,0,0-.13,1.51c.06.22-.26.58-.49.8-.06.06-.43-.14-.61-.28a.94.94,0,0,1-.34-1.13,2.81,2.81,0,0,0-.2-1.14C60.39,43.63,60.63,43.32,61.35,43.34Z"/><path class="cls-1" d="M57,35.64c.63,0,.74.12.77.77a4.26,4.26,0,0,1,0,.94c-.06.43-.38.53-.74.28a2.24,2.24,0,0,0-.47-.31c-.55-.17-.58-.58-.5-1A.8.8,0,0,1,57,35.64Z"/><path class="cls-1" d="M82.3,27.42a8.17,8.17,0,0,1,.25,1,15.44,15.44,0,0,1,0,1.8c0,.45-.12.9-.85,1,0-.62.07-1.2.09-1.78a5.18,5.18,0,0,0,0-1A.85.85,0,0,1,82.3,27.42Z"/><path class="cls-1" d="M59.33,41.65a.73.73,0,0,1-.82-.79c0-.59.34-.91,1-.89a.75.75,0,0,1,.75.85A.82.82,0,0,1,59.33,41.65Z"/><path class="cls-1" d="M62.09,31.72a.77.77,0,0,1-.88-.84.78.78,0,0,1,.79-.83.9.9,0,0,1,.94.89A.83.83,0,0,1,62.09,31.72Z"/><path class="cls-1" d="M117.7,32.57a4.62,4.62,0,0,1-.57-.74.73.73,0,0,1,.3-1,3.37,3.37,0,0,1,.46-.31,3.31,3.31,0,0,1,.62-.09c0,.21.11.45,0,.62C118.32,31.53,118,32,117.7,32.57Z"/><path class="cls-1" d="M99,43.33c-.1.86-.19,1.62-.29,2.42l-.42.08-.12.5C97.92,45.27,98.12,43.71,99,43.33Z"/><path class="cls-1" d="M116.49,54.75c0-.15-.15-.37-.09-.45a3.18,3.18,0,0,1,.68-.69.41.41,0,0,1,.4,0c.08.08.14.34.08.4-.26.28-.56.51-.84.76Z"/><path class="cls-1" d="M107.81,56.87a7.29,7.29,0,0,1,.68-1c.2-.21.39,0,.43.22A.85.85,0,0,1,107.81,56.87Z"/><path class="cls-1" d="M119.16,38.72c.11-.42.09-.86.6-.85.12,0,.37.34.35.37a8.73,8.73,0,0,1-.71.79Z"/><path class="cls-1" d="M104.85,46.13l-1-.4c0-.23.09-.48.13-.72l.14-.07Z"/><path class="cls-1" d="M125.68,85c.12.23.24.46.37.69l-.26.11-.24-.76Z"/><path class="cls-1" d="M107.82,125.16l-.92.35c.17-.64.54-.51.84-.53Z"/></svg>