<svg id="Layer_1" data-name="Layer 1" xmlns="http://www.w3.org/2000/svg" viewBox="0 0 225.44 76.41"><defs><style>.cls-1{fill:#940d16;}</style></defs><path class="cls-1" d="M105.81,69.22c-1.4-1.44-3-.8-4.36-.69s-2.92.64-4.4.81c-.82.09-1.68-.29-2.52-.27-2.49.07-5,.44-7.46.29-4-.24-8,.64-12,.63a22.46,22.46,0,0,0-3.13.38l-1.72-1.93c1.56-.91,3.28-.86,5.06-.88,1.45,0,3,.56,4.43-.4.46-.31,1.27-.15,1.93-.13,1.66,0,3.28.22,4.94-.52.87-.39,2.08,0,3.1-1-1.83-1-3.78-.63-5.81-.82.25-.56.45-1,.66-1.44-2.45-.89-4.89-.29-7.3-.36-1.69,0-3.26.09-4.92-.85-1.18-.66-3-.33-4.45-.34a2.45,2.45,0,0,1-2.44-1.22c-.82-1.33-2.44-1.31-3.88-1.35-1.17,0-2.35,0-3.52,0-2.76,0-5.52-.16-8.28-.12-5,.07-10,.25-15,.34-3,0-5.9-.06-8.85,0-1.89,0-3.78.3-5.68.39-2.48.11-5,.22-7.45.2-2,0-3.92-.23-5.89-.31A5.25,5.25,0,0,0,5.79,60a1.67,1.67,0,0,1-1.94-.8c.29-.23.5-.56.75-.59,2.47-.23,4.92-.82,7.44-.39a11.39,11.39,0,0,0,1.94,0c1.34,0,2.68,0,4,0s2.63-.69,3.91-1.18c1.64-.63,3.24-1.4,4.88-2a24.07,24.07,0,0,1,3-.9c1.45-.35,2.87-1.07,4.41-.65,1,.27,1.83-.36,2.76-.5a58.27,58.27,0,0,1,8.66-1.11c1.49,0,1.61-.24,1.9-1.75a6.08,6.08,0,0,0-1.29-.32c-2.67-.08-5.12-1.56-7.86-1.24a2,2,0,0,1-1.3-.4c-1.48-1.24-3.16-1.1-4.87-.85a1.53,1.53,0,0,1-.58.08c-3.26-.9-6.64.13-9.89-.66a5.34,5.34,0,0,1-.83-.57,43.49,43.49,0,0,1,6.58-.52,9.53,9.53,0,0,0,5.12-1.15c1.87.25,3.33.5,4.81.62a3.45,3.45,0,0,0,1.47-.44,6.71,6.71,0,0,1,2.93-.88c1.28,0,1.28,0,1.62-1.86-2.08-.16-4.15-.38-6.22-.47-2.75-.13-5.51-.17-8.27-.23a12.8,12.8,0,0,0-2,.08c-.73.11-1.42.31-2-.28-.13-.12-.48-.22-.53-.16-.94,1-1.77-.12-2.65-.12s-2-.08-3.06-.14a3.73,3.73,0,0,1,3.21-.82,3.21,3.21,0,0,0,1.35-.19c1.86-.8,3.84-.75,5.8-.94,3.32-.33,6.64-.76,9.93-1.31A4.32,4.32,0,0,0,41.22,36c.91-1,2.15-1.4,3.2-2.13s2.2-1.59,3.84-1c.81.28,1.91-.23,2.86-.49.34-.09.89-.53.86-.71-.3-1.63,1.07-1.49,1.9-2s2.13-.81,2.28-2.25c0-.35.67-.76,1.12-.91a12.59,12.59,0,0,1,2.19-.39,7.18,7.18,0,0,1,.2-.92c.33-.88,1.12-1.66,1.9-1.46,2.41.61,4.59-.59,6.94-.57s5-.85,7.46-1.31c1.09-.2,2.2-.34,3.29-.52.45-.08.9-.2,1.35-.32l9.32-2.74c1.76-.52,3.57-.93,5.28-1.58,3.24-1.24,6.64-1.47,10-1.87.79-.09,1.58-.1,2.36-.21s1.42-.32,1.6-1.27c-1.43-1.4-3.45-1.29-5.15-2a12.94,12.94,0,0,0-5.34-1c-1.59,0-1.86-1.19-2-2.55L93.25,7.1c.42-.26.8-.7,1.09-.65,1.69.34,3.2-.51,4.78-.62a9.2,9.2,0,0,1,4,.74,11.17,11.17,0,0,0,6.12.71,16.73,16.73,0,0,1,2.55,0c1.63,0,3.28.45,4.86-.32a1.74,1.74,0,0,1,.79-.08c2.49.14,5,.28,7.47.44a1.73,1.73,0,0,1,.94.28c1.71,1.41,3.62.83,5.49.61.2,0,.46,0,.58-.1,2-1.77,4.52-1.54,6.84-2A18.93,18.93,0,0,1,143.67,6c1.89.08,3.77.47,5.65.42s4.06.63,6-.54a3.63,3.63,0,0,1,1.54-.21,7.87,7.87,0,0,0,1.76-.1c2.21-.7,4.41-.16,6.62-.11s4.68.74,6.72-.49c2.54-1.52,4.66-.12,6.89.52,2.4.69,4.72,1.66,7.12,2.35A24.66,24.66,0,0,0,193.6,9a12.83,12.83,0,0,1,6.1,1.4,28.18,28.18,0,0,1,8.92,6.72c1.9,2.16,3.71,4.54,6,6.2,2.06,1.49,3.2,3.61,4.89,5.33a7.76,7.76,0,0,1,1.35,2.8,18.26,18.26,0,0,0,.58,2.29c1,1.83.51,3.58,0,5.36a3.32,3.32,0,0,0-.31,1.52c.4,1.66-.36,3-1.16,4.24-1.15,1.83-2.44,3.58-3.55,5.44A30.46,30.46,0,0,0,214.61,54a1.76,1.76,0,0,0-.09,1.15c.6,1.93.07,3.83-.27,5.68a3.28,3.28,0,0,1-1.93,2,23.42,23.42,0,0,1-9.25,1.45c-2.1-.11-4.2-.16-6.29-.36A3.16,3.16,0,0,0,194,65.07a1.54,1.54,0,0,0-.39,1.77c.52,1.54-.28,2.61-1.92,2.81-3.64.43-7.27,1-10.93,1.27a52.86,52.86,0,0,1-6.66,0c-5.37-.25-10.74-.59-16.1-.9-3.67-.21-7.33-.58-11-.62a11.29,11.29,0,0,1-5.44-1,1.9,1.9,0,0,1-2,.86c-2.15-.15-4.32-.07-6.49-.1-.37,0-1,0-1.09-.24-.86-1.68-2.54-1.5-3.94-1.66a49,49,0,0,0-5.69-.12c-.13,0-.27.24-.48.44.81,1.07,2.24.58,3.5,1.51-1.44-.1-2.49-.22-3.54-.25s-2.21,0-3.32,0a4.28,4.28,0,0,0-1.17-.06,4.13,4.13,0,0,1-3.23-.57c-.58-.3-1.14-.58-1.77.09a1.49,1.49,0,0,1-1.26.12A5.22,5.22,0,0,0,105.81,69.22Z"/></svg>