<svg id="Layer_1" data-name="Layer 1" xmlns="http://www.w3.org/2000/svg" viewBox="0 0 221.49 40.36"><defs><style>.cls-1{fill:#940d16;}</style></defs><path class="cls-1" d="M5.51,22q5.43-.21,10.73-.56a5.31,5.31,0,0,0,2.13-.59,18.55,18.55,0,0,1,3-.91,7.93,7.93,0,0,1,4-.43,13.7,13.7,0,0,0,3.05-.21c.36,0,.87-.22.79-.3-.74-.7.82-.64,1.63-.84s2.17-.35,2-1c-.05-.15.56-.32,1-.39.68-.1,1.49-.11,2.34-.16a1.08,1.08,0,0,1,0-.4c.15-.38.83-.71,1.75-.62,2.82.26,5-.25,7.58-.24s5.32-.36,8-.56l3.53-.22c.48,0,1-.08,1.42-.14l9.69-1.17c1.83-.22,3.74-.39,5.48-.67a99,99,0,0,1,10.68-.79c.84,0,1.72-.05,2.56-.09s1.5-.14,1.46-.54c-1.92-.61-4.15-.56-6.21-.87A41.49,41.49,0,0,0,76,9.87a3.29,3.29,0,0,1-2.91-1.09L69.12,8.5a3.66,3.66,0,0,1,1-.28A44.07,44.07,0,0,0,75.33,8,27.32,27.32,0,0,1,80,8.28a33.93,33.93,0,0,0,7,.31c.89-.05,1.89,0,2.84,0a27.42,27.42,0,0,0,5.33-.13,3.86,3.86,0,0,1,.85,0l8.42.19a5.57,5.57,0,0,1,1.12.12A19.07,19.07,0,0,0,111.8,9a3.3,3.3,0,0,0,.61,0c1.73-.76,4.65-.66,7.1-.87a53.83,53.83,0,0,1,5.41,0c2.12,0,4.31.21,6.39.19s4.67.27,6.51-.23a9.21,9.21,0,0,1,1.66-.09c.64,0,1.37,0,1.93,0a54.15,54.15,0,0,1,7.33,0c2.52,0,5.4.32,7.36-.21,2.45-.65,5.15-.05,7.78.23,2.85.3,5.67.72,8.51,1a76.37,76.37,0,0,0,8.78.49,39.91,39.91,0,0,1,7.13.6,71.91,71.91,0,0,1,11.57,2.89,79,79,0,0,0,8.21,2.67c2.67.65,4.46,1.56,6.76,2.3a8.35,8.35,0,0,1,2.19,1.2c.49.31.64.7,1.21,1,1.58.79,1.45,1.54,1.29,2.31,0,.21-.21.45,0,.65.85.71.32,1.27-.25,1.82-.82.78-1.82,1.53-2.61,2.33a6.83,6.83,0,0,0-1.06,1.6.38.38,0,0,0,.18.49,2.63,2.63,0,0,1,1.1,2.44c0,.33-.83.73-1.65.85a58.79,58.79,0,0,1-9.94.62c-2.36,0-4.71-.08-7.08-.16a5.29,5.29,0,0,0-2.81.49c-.41.22-.47.43,0,.76,1,.66.32,1.12-1.44,1.2-3.95.19-7.86.41-11.85.54-2.4.08-4.91.05-7.41,0-6-.11-12.07-.26-18.11-.4-4.14-.09-8.3-.25-12.39-.27a34.66,34.66,0,0,1-6.29-.43,3,3,0,0,1-2,.36c-2.44-.06-4.83,0-7.24,0a5,5,0,0,1-1.28-.1c-1.37-.72-3.19-.64-4.79-.71-2.14-.1-4.24-.06-6.35-.06-.16,0-.25.1-.43.19,1.16.46,2.64.25,4.27.65-1.63,0-2.83-.1-4-.11s-2.46,0-3.7,0a11.82,11.82,0,0,0-1.31,0,12.33,12.33,0,0,1-3.72-.25,3.08,3.08,0,0,0-2,0,3.86,3.86,0,0,1-1.37,0,12.42,12.42,0,0,0-5.66.32,13.11,13.11,0,0,0-5-.3c-1.62,0-3.09.27-4.69.35-.89,0-1.94-.13-2.87-.12-2.75,0-5.44.18-8.23.12-4.55-.11-8.72.26-13.18.25-1.16,0-2.25.11-3.39.17l-2.39-.83A23.87,23.87,0,0,1,64,34.44c1.61,0,3.46.25,4.82-.17A10.16,10.16,0,0,1,71,34.22,28.54,28.54,0,0,0,76.35,34c.87-.17,2.3,0,3.2-.42a42.36,42.36,0,0,0-6.66-.36c.15-.23.26-.41.38-.61a65.13,65.13,0,0,0-8.21-.16,29.38,29.38,0,0,1-5.67-.37,28.68,28.68,0,0,0-5-.15,6.79,6.79,0,0,1-3-.53,12.48,12.48,0,0,0-4.65-.58c-1.31,0-2.61,0-3.91,0-3.08,0-6.18-.07-9.24-.06-5.53,0-11,.1-16.56.14-3.26,0-6.57,0-9.83,0-2.09,0-1.87.13-3.95.17,0,0-1.95-1.08.67-1.2S5.37,29.29,7,29c1-.16,2.05-.28,3.11-.38a21.75,21.75,0,0,1,4.74-.28,14.88,14.88,0,0,0,2.95-.21c3.09-.18,6.08-.47,9.35-.47,1.67,0,1.74-.1,1.69-.75-.5,0-1-.13-1.52-.14-3,0-6.07-.67-9-.54a5.72,5.72,0,0,1-1.55-.17,17.11,17.11,0,0,0-5.62-.37,3.33,3.33,0,0,1-.63,0c-4.2-.42-7.33-.82-5-.76a21.08,21.08,0,0,0,5.43-.49c2.13.11,3.82.22,5.49.27a6.58,6.58,0,0,0,1.52-.19,14.3,14.3,0,0,1,3-.37c1.43,0,1.61-.51,1.52-1.31-2.35-.07-4.88.35-7.21.3-3.09-.05-6.17-.07-9.25-.1-.73,0-1.47,0-2.17,0A6.22,6.22,0,0,1,1.52,23,9.28,9.28,0,0,1,5.51,22Z"/></svg>