<svg id="Layer_1" data-name="Layer 1" xmlns="http://www.w3.org/2000/svg" viewBox="0 0 221.49 40.36"><defs><style>.cls-1{fill:#940d16;}</style></defs><path class="cls-1" d="M105.11,33a11.4,11.4,0,0,0-4.47-.26c-1.44,0-2.75.25-4.18.32-.78,0-1.72-.11-2.54-.1-2.46,0-4.85.17-7.33.12-4-.1-7.76.25-11.73.25-1,0-2,.1-3,.15l-2.13-.74a20.51,20.51,0,0,1,4.81-.35,16.84,16.84,0,0,0,4.3-.16,9.13,9.13,0,0,1,1.88-.06,24.87,24.87,0,0,0,4.78-.2,13.56,13.56,0,0,0,2.85-.39,35.67,35.67,0,0,0-5.93-.31l.34-.56a56.38,56.38,0,0,0-7.31-.13,25.24,25.24,0,0,1-5-.33,27.34,27.34,0,0,0-4.48-.13,5.8,5.8,0,0,1-2.68-.47,11.05,11.05,0,0,0-4.13-.52c-1.17,0-2.32,0-3.49,0-2.74,0-5.49-.06-8.21,0-4.92,0-9.82.11-14.74.15-2.9,0-5.84,0-8.74,0-1.87,0-3.68.12-5.54.15-2.43,0-4.86.1-7.32.09-2,0-3.94-.08-5.9-.11a7.18,7.18,0,0,0-1,.11A4.12,4.12,0,0,1,2,29.22,2,2,0,0,1,2.64,29a69.38,69.38,0,0,1,7.27-.16c.65,0,1.29,0,1.93,0,1.33,0,2.65,0,4,0a19.67,19.67,0,0,0,3.61-.47c1.49-.24,2.9-.54,4.39-.79.88-.15,1.82-.26,2.77-.36A19.56,19.56,0,0,1,30.82,27a13.16,13.16,0,0,0,2.62-.2c2.75-.17,5.41-.43,8.32-.44,1.48,0,1.54-.09,1.5-.68-.44,0-.91-.12-1.35-.12-2.66,0-5.4-.6-8-.48a5.31,5.31,0,0,1-1.38-.15,14.71,14.71,0,0,0-5-.33,3.57,3.57,0,0,1-.56,0c-3.41-.34-6.53.06-9.93-.24-.15,0-.31-.08-.94-.22,2.4-.09,4.35-.27,6.39-.21a19.56,19.56,0,0,0,4.83-.45c1.89.09,3.4.19,4.88.23a6.49,6.49,0,0,0,1.36-.17,12.56,12.56,0,0,1,2.71-.35c1.27,0,1.27,0,1.19-.72-2.09-.06-4.18-.14-6.25-.18-2.75,0-5.49-.06-8.23-.08-.65,0-1.31,0-1.93,0a5.46,5.46,0,0,1-2.08-.11,1.6,1.6,0,0,0-.57-.06c-.7.39-1.77-.05-2.64-.05s-2,0-3.06-.05a7,7,0,0,1,3-.32A6.57,6.57,0,0,0,17,21.59a41.83,41.83,0,0,1,5.53-.37Q27.31,21,32,20.7a4.68,4.68,0,0,0,1.9-.53,15.2,15.2,0,0,1,2.71-.83,7,7,0,0,1,3.58-.4,11.86,11.86,0,0,0,2.71-.19c.32,0,.78-.21.7-.28-.65-.63.74-.58,1.46-.77s1.92-.31,1.75-.87c0-.14.51-.3.91-.36.61-.09,1.34-.1,2.09-.15a.87.87,0,0,1,0-.36c.13-.34.74-.64,1.56-.57,2.51.24,4.41-.23,6.74-.22s4.73-.34,7.1-.52c1-.08,2.09-.13,3.13-.21q.65,0,1.26-.12l8.63-1.08c1.63-.2,3.33-.36,4.88-.61a85.36,85.36,0,0,1,9.5-.74c.75,0,1.53,0,2.28-.08s1.34-.13,1.3-.5a36.51,36.51,0,0,0-5.52-.77,36.39,36.39,0,0,0-5.51-.4,2.92,2.92,0,0,1-2.59-1L79.1,8.91A2.86,2.86,0,0,1,80,8.65a39.25,39.25,0,0,0,4.6-.24,24.35,24.35,0,0,1,4.14.28A29.84,29.84,0,0,0,95,9c.8-.05,1.69,0,2.53,0a23.86,23.86,0,0,0,4.75-.13,3.55,3.55,0,0,1,.75,0l7.5.16a4.41,4.41,0,0,1,1,.11,16.46,16.46,0,0,0,5.56.23,2.12,2.12,0,0,0,.55,0c1.54-.69,4.14-.6,6.32-.8a47.81,47.81,0,0,1,4.81,0c1.89,0,3.84.18,5.69.16s4.15.24,5.79-.22a9.28,9.28,0,0,1,1.48-.08c.57,0,1.22,0,1.71,0a50.58,50.58,0,0,1,6.53-.05c2.24,0,4.8.28,6.55-.19,2.18-.6,4.58-.06,6.92.19,2.53.27,5,.64,7.57.91a66.18,66.18,0,0,0,7.81.43,34.8,34.8,0,0,1,6.34.54,62.09,62.09,0,0,1,10.29,2.6,71.78,71.78,0,0,0,7.3,2.4c2.37.58,4,1.4,6,2.07a7.6,7.6,0,0,1,2,1.08c.44.29.56.64,1.07.89,1.41.72,1.29,1.4,1.15,2.09,0,.19-.19.41,0,.59.76.64.29,1.15-.22,1.65-.73.71-1.62,1.39-2.32,2.11a5.61,5.61,0,0,0-.95,1.46c-.08.13,0,.31.16.44a2.39,2.39,0,0,1,1,2.21c0,.3-.74.66-1.47.77a51.25,51.25,0,0,1-8.84.57c-2.1,0-4.19-.05-6.3-.13a4.66,4.66,0,0,0-2.5.45c-.37.21-.42.4,0,.69.84.6.28,1-1.29,1.09-3.51.18-7,.39-10.54.51-2.14.07-4.37.05-6.59,0-5.37-.09-10.74-.22-16.12-.33-3.68-.08-7.38-.22-11-.23a30.61,30.61,0,0,1-5.6-.38c-.31.29-.89.35-1.8.33-2.16-.06-4.29,0-6.44,0a4.34,4.34,0,0,1-1.13-.09c-1.22-.65-2.84-.58-4.27-.64-1.9-.09-3.77,0-5.65,0-.13,0-.21.09-.38.17,1,.41,2.35.22,3.8.58-1.45,0-2.51-.08-3.56-.09s-2.19,0-3.29,0c-.38,0-.85-.07-1.17,0a10.6,10.6,0,0,1-3.31-.21,2.7,2.7,0,0,0-1.74,0,3.07,3.07,0,0,1-1.22,0A11,11,0,0,0,105.11,33Z"/></svg>