<svg id="Layer_1" data-name="Layer 1" xmlns="http://www.w3.org/2000/svg" viewBox="0 0 175.21 140.47"><defs><style>.cls-1{fill:#940d16;}</style></defs><path class="cls-1" d="M16.58,80.48l-.15.28c-.24-.22-.45-.56-.82-.42,0,.18-.11.38-.15.56a3.21,3.21,0,0,0-1.2.24,1.38,1.38,0,0,0-.48.82,2.6,2.6,0,0,0,.74,2.72l.19-.35.31.17c-.19.81.73,1,.61,1.35a2,2,0,0,1,1.22.3L16.8,86a3.29,3.29,0,0,1,.42-.63c.2-.21.36-.16.59,0s.42,0,.62-.31a3.67,3.67,0,0,0,.42-.72c.42-1-.1-1.93-.47-2.83l-.54.12,0-.14A13.35,13.35,0,0,0,16.58,80.48Z"/><path class="cls-1" d="M71.45,130.55a2.9,2.9,0,0,0-.92-1.27l-.1.05c-.79-1-1.48-1.07-2.44-1.71v.16c-1.52,1.63-2.22,3.26,0,4.84a13.76,13.76,0,0,0,2.19.22c.21-.11,0-.7.48-.36l.48-.38C71,131.54,71.57,131.11,71.45,130.55Z"/><path class="cls-1" d="M64,131.5l.12,0c.13-.33.26-.65.38-1l-.53-.18C64,130.82,63.93,131.09,64,131.5Z"/><path class="cls-1" d="M24.09,119.88a4.87,4.87,0,0,0,.83-.23l.08.1v-.59C24.67,119.36,24.24,119.51,24.09,119.88Z"/><path class="cls-1" d="M163.1,61.44,162.66,60l.16,0-1-.54c-.89.54-2.15,1-2.9,0a5.73,5.73,0,0,1-.69-3.08,28.74,28.74,0,0,1,.23-3.94,23.79,23.79,0,0,0,.33-3.77,29,29,0,0,0-.63-3.82,9.09,9.09,0,0,1-.22-1.94,3.94,3.94,0,0,1,.71-1.61,8.16,8.16,0,0,0-.54-1.74c.3-.31.59-.64.87-1a22.36,22.36,0,0,0-.54-6.32,21.06,21.06,0,0,0-.89-2.45,13.24,13.24,0,0,0-1.15-2A4.13,4.13,0,0,0,154.8,26a7.77,7.77,0,0,1-1.41-.78A11.86,11.86,0,0,1,152,23.68a18.43,18.43,0,0,0-1.86-1.32c-1.77-1.42-3.46-2.57-3.15-5.53-1.58-.4-2.86,1.38-4.49.62l0-.37a1.24,1.24,0,0,1-.57.05,3.89,3.89,0,0,1-.44-.4,1.57,1.57,0,0,0-.1-1.77c-.59.07-.72.92-1.21,1.2a3.33,3.33,0,0,1-2.07.2,4,4,0,0,0-1,0c-8.73-1.7-25.09-5.73-25.86-6.18-3.62-1.89-6.65,2-10.44,1.53-8.58,2.52-17.8-2.08-26.06,1.11l-.12-.05a6.43,6.43,0,0,1-1.9-1.7A20.12,20.12,0,0,1,71.3,9a25.91,25.91,0,0,0,1.73-5,4,4,0,0,0-.26-2.19c-.09-.21-.25-.66-.52-.48s-.27.71-.32.94c-.09.49-.14,1-.19,1.49a6.34,6.34,0,0,1-.42,2.26c-.17.34-.49.9-1,.71s-.66-.78-.82-1.15a20,20,0,0,1-.71-1.87,5.31,5.31,0,0,0-.63-1.47c-.23-.31-.41-.2-.55.12a9.9,9.9,0,0,0-.52,2.87c.74,1,1.38,3.63-.25,4.11A1.83,1.83,0,0,1,65,8.81c-.37-.49-.44-1.11-.92-1.53-.68-.61-1.34-.21-2.1-.36a2.16,2.16,0,0,1-1.49-1.28c-.5-1.13-.31-2.55-1.78-3-1.24-.37-.65,1.63-1.61,1.91a1.27,1.27,0,0,1,.22,1.11c-.42,0-.84.44-1.11.69a6.17,6.17,0,0,1-1.41,1.07c-1.42.67-3-.5-4.54-.11l.62.83a3.63,3.63,0,0,1-1.38,2.39,12,12,0,0,1-2.68,1.52c-1.31.49-2.52-.31-3.79-.65a6.29,6.29,0,0,0-2-.56c-.86.09-.78,1.14-.81,1.77-.17,3.43-4.85-1.35-5.39.53,1.48,2.12,3,4.64,1.37,7l-1.34-.07c-1.13,2.48-3,1.42-5.1.44-.36.94,0,2-.7,2.85a8.2,8.2,0,0,0-.88,1,5.7,5.7,0,0,1-.71.91c-1.31,1.28-2.73.3-3.73-.91l-.13.11c.42.55.9,1.07,1.37,1.59A3.07,3.07,0,0,0,26,27c.3.13.79.17,1,.39a1.76,1.76,0,0,1,.42,1c0,.66-.64.59-1.1.4a3,3,0,0,1-1.52-1.45l-3.45-.52c0,.56,0,.94,0,1.36H20.24c.51.56-1.31,1.14-1.69,1,.27,1.39-.62,2.14-1.9,2.35a14.94,14.94,0,0,1-3.72,0c-1-.08-2-.24-2.75.6s.87,1.6,1.21,2.32A3.06,3.06,0,0,1,9.34,38.6c1.1,1,1.49,2.09,1.18,2.54l-1.91.29.21.18c-.07.53-.59,1.74.15,2.09-.14.86.29,1.21-.6,1.48.17.73-.37.81-.74.93.25,1.1.18.86-.69,1.06-.3.55-.34,1.38-1.17,1-.46.88-.13,1-1,1.41,0,.36.09.72.15,1.2l.87-.61,0,.18,1.88-.28c.48,1.68-.26,1.75-1.57,1.45C5.9,53,5.26,52.65,4.61,53.68c.53.84,2.06.92,1.88,2.31a1.19,1.19,0,0,0,1.21.26,1.8,1.8,0,0,1,1-.26,7.38,7.38,0,0,1,3.64,1.88c-1.13.21-.57.84-.61,1.34-1.21.37-1.95.31-1.2,1.38l-.33.33c.86.66,3,1.86,2.18,3.17a15.17,15.17,0,0,1-1.69,1.81,10.48,10.48,0,0,0-.94,1.41c-.17.27-.41.82-.76.91.62,1-.71,1.34-1.32,1.55,2.82,1.33,2.57,2.81.66,4.67l-.24-.09a4.06,4.06,0,0,0-.12.4l.86,1.43,1.72.27c.32-.78-.24-1.81.68-2.3a.78.78,0,0,1,.78.06,2.36,2.36,0,0,0,1.07.27,19.71,19.71,0,0,0,2.74-.61c.79-.14,1.38.09,1.51.95l.1,0,.7,2,.89.26-.31.9c1.75,1.44,3.68,2.66,1.49,4.74l.51.27-.37.72c.52-.21.7-.28,1-.14-1.75.3-.3.45-.5,1.41,1.63.36.62,1.63.7,3a1.4,1.4,0,0,0-.8.14,2.64,2.64,0,0,0,.75.74,5.75,5.75,0,0,1,1,.91.92.92,0,0,1,.21,1c-.17.38-.56.32-.91.28s-.7-.14-.95,0a.66.66,0,0,0-.07.84c.13.23.35.39.48.62a.9.9,0,0,1-.18.93,4.22,4.22,0,0,1-.87.87c-.11.09-.22.14-.26.28a3.23,3.23,0,0,0,0,.88,2.34,2.34,0,0,1-.39,1.34,2.89,2.89,0,0,0-.56,1c-.1.56.28,1,.39,1.54.24,1.09-1,1.81-.92,2.88s.91,1.85.94,2.89a3.51,3.51,0,0,1-.34,1.38,10.25,10.25,0,0,1-.63,1.29,15.09,15.09,0,0,0-3,.44,2.24,2.24,0,0,0-1,.7c-.08.1-.26.29-.1.38s.44,0,.57-.09a7.64,7.64,0,0,0,.8-.29,3.54,3.54,0,0,1,1.26-.38c.22,0,.59,0,.63.29s-.22.53-.36.71-.5.56-.75.84a2.73,2.73,0,0,0-.58.69c-.09.2,0,.26.21.24a5.7,5.7,0,0,0,1.6-.49c.3-.63,1.46-1.63,2.15-1a1,1,0,0,1,.22,1.1c-.15.31-.44.51-.53.85-.12.5.27.72.4,1.14a1.22,1.22,0,0,1-.24,1.07c-.44.54-1.21.82-1,1.66s1-.1,1.4.3a.74.74,0,0,1,.51-.4c.09.22.45.3.65.37a3.54,3.54,0,0,1,.93.42c.73.52.58,1.63,1.18,2.27.13-.26.2-.41.25-.52a2.18,2.18,0,0,1,1.59.06,6.9,6.9,0,0,1,1.51.93c.6.52.53,1.32.7,2a3.71,3.71,0,0,0,.27,1.16c.28.39.79.08,1.12-.07,1.79-.81.64,2.76,1.74,2.53.67-1.28,1.52-2.71,3.17-2.5l.33.68c1.57-.08,1.54,1.1,1.62,2.41.57-.07,1-.55,1.64-.4a3.71,3.71,0,0,0,.73.18,2.87,2.87,0,0,1,.65.12c1,.31.91,1.27.56,2.08l.09,0c.17-.36.3-.73.44-1.09a1.88,1.88,0,0,0,.22-.79,2.21,2.21,0,0,1-.09-.62,1,1,0,0,1,.41-.48c.33-.18.48.16.5.44a1.56,1.56,0,0,1-.31,1.13l.68,1.85.67-.38L42,128c.15-.39.94.35,1,.58a1.13,1.13,0,0,1,1.71.33,8.67,8.67,0,0,1,1,1.85c.24.54.42,1,1.05,1.2s.58-.85.85-1.21a1.79,1.79,0,0,1,2.64,0c.23-.82.65-1.28,1-1.25l.68.87,0-.15c.29-.11,1-.16,1-.62.48-.16.54-.46.92-.09.32-.28.51,0,.67.12.49-.41.39-.31.73.07.35,0,.76-.18.83.27l-1.12.49.73.39.39-.86s0,0,0,0c.57,0,.53-.19,1,.15l.57-.39-.55-.27.08-.06-.66-.86c.72-.68,1-.33,1.17.4.78-.29.79.12,1.49.17.28-.48-.1-1.26.65-1.53a.66.66,0,0,0-.19-.67c-.17-.13-.31-.2-.4-.41a4,4,0,0,1-.06-2.21l.13,0c.14.12.25.14.34.1l.86.21c.13.1.22.14.33.07.45.1.9.22,1.35.3a19.28,19.28,0,0,0,2.94.3,17,17,0,0,0,4.19,2.31,20.11,20.11,0,0,0,2.5.68,13,13,0,0,0,2.24.18,4.17,4.17,0,0,0,2.38-.31,9.14,9.14,0,0,1,1.25-.63,4.22,4.22,0,0,0,2.09-.19c1.8-.59,3.24-.23,4,1.59.1.2,10.32.39,20.59.57l.14.29.37-.28,1.09,0,.29.41c.16-.74,1.67.43,1.77.83,1-1,2.09-.72,3,.21a15.41,15.41,0,0,1,2.11,3.1c.54.91.95,1.77,2.07,1.93s.8-1.64,1.18-2.34a3,3,0,0,1,4.51-.67c.2-1.51.83-2.43,1.37-2.44l1.33,1.41,0-.28c.46-.24,1.75-.51,1.6-1.32.78-.38.81-.94,1.54-.35.5-.57.87-.16,1.18.07.74-.84.6-.64,1.26,0,.61-.08,1.31-.53,1.49.37,1-.12.87-.45,1.75.05l.88-.82-1-.36.13-.13-1.31-1.39c1.08-1.37,1.56-.8,2.08.46,1.28-.68,1.38.05,2.58,0,.38-.92-.44-2.23.78-2.88a1.19,1.19,0,0,0-.47-1.15,1.86,1.86,0,0,1-.77-.65,7.61,7.61,0,0,1-.58-4.09c.83.82,1,0,1.44-.27,1,.79,1.37,1.44,1.81.21l.45.07c.05-1.09-.2-3.53,1.31-3.62a14.49,14.49,0,0,1,2.44.35,9.45,9.45,0,0,0,1.68,0c.31,0,.9-.13,1.18.1.46-1.09,1.49-.18,2,.21-.56-3.1.79-3.75,3.38-3.24l.08.25.38-.13c.27-.6.49-1.11.67-1.53-.24-.49-.49-1-.77-1.58-.82.19-1.33,1.24-2.25.76a.82.82,0,0,1-.41-.68,2.27,2.27,0,0,0-.39-1,19.68,19.68,0,0,0-2.07-1.91c-.57-.57-.73-1.19-.11-1.8l-.09-.06,1.22-1.73c-.06-.2-.18-.54-.29-.89l.9-.26c.16-2.28,0-4.58,3-4,0-.14,0-.34-.07-.58l.79-.1c-.71-.47-.71-.47-.67-1.35-.88-.88-.34-1.88-.47-2.6l1.57-1.16c-.13-.57.28-.75.66-.77l.71-1.49.07.09.66-.49-.11-.18-.9,0c.2-1.24-.51-2.43.13-3.6-2.25-1,.71-4,2.24-3.88,0-.06,0-.12,0-.18l1.79,1c1.07-1.31.25-.93.18-2.08a2.61,2.61,0,0,1-.91-1.48c.15-.3.3-.6.43-.9a1.67,1.67,0,0,0,.08-.83c0-.54-.05-1.08-.07-1.62a28.7,28.7,0,0,1,.14-3.71c1.4-.25.3-2.63,1.83-2.57,0-.28.43-.56.6-.7a7.86,7.86,0,0,0,.94-.79c.47-.5.23-.87-.07-1.41-.59-1.07-1.71-2.9.06-3.4-1.41-2.34-.11-4.32,1.55-1.21l.67-.32a10.58,10.58,0,0,0,2,3.05l.09-.11.51,1.2.35,0c.2-1.61-.1-4-1.42-5.18ZM15.8,39.07c-.66,1-3.22.24-2.37-1.29C14.24,37.49,16.81,37.57,15.8,39.07Zm2.87,2a1.81,1.81,0,0,1-1.15-2.28c.23-.43.76-.93.46-1.46s-.74-.5-.82-.94a3.87,3.87,0,0,1,.39-1.89c.26-.67.58-1.32.81-2,.36-1,.46-1.93,1.64-2.25,1.45-.39,4.28.79,3.26,2.63-.85.78-.32,2.19-.89,3.13a2.13,2.13,0,0,1-1.49,1c-.36,0-.81-.06-1.09.22-.76.73-.18,1.68.23,2.4a.79.79,0,0,1,.08.9A1.52,1.52,0,0,1,18.67,41.06Zm2.82,42.63.1.07s0,0,0,0Zm1.85,2.16.21.6C23.21,86.4,23.17,86.27,23.34,85.85ZM24.13,88l.09.24h-.09A1.76,1.76,0,0,1,24.13,88Zm23.09,38.79c-.13.21,0,.5-.25.66a2.2,2.2,0,0,1-1.07.29c-.41.05-.82.06-1.23.12-.61.09-1.1.28-1.59-.22s-.76-2.32.45-2.3c.63.22,1.2-.41,1.83-.38a1.25,1.25,0,0,1,.91.48c.12.17.19.42.41.49.57.18.9-.35,1.15-.74a.44.44,0,0,1,.43-.28.9.9,0,0,1,.67.57,1,1,0,0,1-.84,1.16C47.81,126.64,47.41,126.51,47.22,126.79Zm1.48,2.14c-.37-.33-1-1.62,0-1.51C49.38,127.49,49.7,129,48.7,128.93Zm69.22,1.2a2.22,2.22,0,0,1-.36-.34l1,0A1,1,0,0,1,117.92,130.13Z"/><path class="cls-1" d="M166.53,46.21a24.09,24.09,0,0,0,0-2.55c-.49.32-1.2.71-1.42,1.31A6.28,6.28,0,0,0,165,46.2a3,3,0,0,1-.83,1.69c-.31.31-1,1.11-1.45,1.09-.07.47-.41,1.56-.08,2,.22.3.7.42,1,.68,1.81,1.77.94,4.31-.21,6.15.46,1,.56,1-.35,1.5.57.23,1.47-.61,1.9-.89a3.43,3.43,0,0,1,2.13-.76c-.07-1.48-1.54-2.45-1.24-4a7.46,7.46,0,0,1,.87-2,13.57,13.57,0,0,0,.71-1.83,1,1,0,0,0,.13-.51,3.91,3.91,0,0,0-.38-.73A6.34,6.34,0,0,1,166.53,46.21Z"/><path class="cls-1" d="M156.54,25.46l.71-.38c.5-2.3,1.3-3.42-.79-4.55a10.09,10.09,0,0,1-2,1.93C155.43,23.8,156.39,23.63,156.54,25.46Z"/><path class="cls-1" d="M168.21,72.44c1,.12,2.5-.1,3-1C170,70.75,168.94,70.9,168.21,72.44Z"/><path class="cls-1" d="M137,12.44l-.49.92C138.73,13.9,138.65,12.63,137,12.44Z"/><path class="cls-1" d="M161.55,12.09l-.09-.19-.87-.2-.14.14C161.07,12.59,160.93,12.47,161.55,12.09Z"/><path class="cls-1" d="M168.88,41.64l-.95.19,1,.64C169,42.27,168.92,42,168.88,41.64Z"/><path class="cls-1" d="M75.87,130l-.1.81c1.57,1.73,2,3,4.13,2a10.25,10.25,0,0,1-.39-2.81C77.84,130,77.43,130.88,75.87,130Z"/><path class="cls-1" d="M47.6,7.65a6.63,6.63,0,0,0-.31,1.47l-.23.05.92.49A3.35,3.35,0,0,0,47.6,7.65Z"/></svg>